<?xml version="1.0" encoding="UTF-8" standalone="no"?>
<!DOCTYPE svg PUBLIC "-//W3C//DTD SVG 1.1//EN"
 "http://www.w3.org/Graphics/SVG/1.1/DTD/svg11.dtd">
<!-- Generated by graphviz version 2.44.1 (20200629.0846)
 -->
<!-- Title: dependencies Pages: 1 -->
<svg width="2281pt" height="290pt"
 viewBox="0.00 0.00 2281.00 290.00" xmlns="http://www.w3.org/2000/svg" xmlns:xlink="http://www.w3.org/1999/xlink">
<g id="graph0" class="graph" transform="scale(1 1) rotate(0) translate(4 286)">
<title>dependencies</title>
<polygon fill="white" stroke="transparent" points="-4,4 -4,-286 2277,-286 2277,4 -4,4"/>
<text text-anchor="start" x="1115.51" y="-42.4" font-family="sans-serif" font-weight="bold" font-size="14.00">Legend</text>
<polygon fill="#ffffb3" stroke="transparent" points="902.5,-10 902.5,-30 922.5,-30 922.5,-10 902.5,-10"/>
<text text-anchor="start" x="926.13" y="-15.4" font-family="sans-serif" font-size="14.00"> &#160;Declarations</text>
<polygon fill="#8dd3c7" stroke="transparent" points="1015.5,-10 1015.5,-30 1035.5,-30 1035.5,-10 1015.5,-10"/>
<text text-anchor="start" x="1039.23" y="-15.4" font-family="sans-serif" font-size="14.00"> &#160;Module</text>
<polygon fill="#80b1d3" stroke="transparent" points="1101.5,-10 1101.5,-30 1121.5,-30 1121.5,-10 1101.5,-10"/>
<text text-anchor="start" x="1125.28" y="-15.4" font-family="sans-serif" font-size="14.00"> &#160;Bootstrap</text>
<polygon fill="#fdb462" stroke="transparent" points="1198.5,-10 1198.5,-30 1218.5,-30 1218.5,-10 1198.5,-10"/>
<text text-anchor="start" x="1222.17" y="-15.4" font-family="sans-serif" font-size="14.00"> &#160;Providers</text>
<polygon fill="#fb8072" stroke="transparent" points="1294.5,-10 1294.5,-30 1314.5,-30 1314.5,-10 1294.5,-10"/>
<text text-anchor="start" x="1318.23" y="-15.4" font-family="sans-serif" font-size="14.00"> &#160;Exports</text>
<g id="clust19" class="cluster">
<title>cluster_SerFilterModule</title>
<polygon fill="none" stroke="black" stroke-dasharray="1,5" points="294,-70 294,-274 1427,-274 1427,-70 294,-70"/>
</g>
<g id="clust20" class="cluster">
<title>cluster_SerFilterModule_declarations</title>
<polygon fill="none" stroke="black" points="327,-78 327,-130 1419,-130 1419,-78 327,-78"/>
</g>
<g id="clust29" class="cluster">
<title>cluster_SerFilterModule_exports</title>
<polygon fill="none" stroke="black" points="302,-214 302,-266 1419,-266 1419,-214 302,-214"/>
</g>
<g id="clust32" class="cluster">
<title>cluster_SerFormModule</title>
<polygon fill="none" stroke="black" stroke-dasharray="1,5" points="8,-146 8,-274 286,-274 286,-146 8,-146"/>
</g>
<g id="clust42" class="cluster">
<title>cluster_SerFormModule_exports</title>
<polygon fill="none" stroke="black" points="16,-214 16,-266 278,-266 278,-214 16,-214"/>
</g>
<g id="clust45" class="cluster">
<title>cluster_SerSelectModule</title>
<polygon fill="none" stroke="black" stroke-dasharray="1,5" points="1551,-70 1551,-198 1867,-198 1867,-70 1551,-70"/>
</g>
<g id="clust54" class="cluster">
<title>cluster_SerSelectModule_imports</title>
<polygon fill="none" stroke="black" points="1699,-78 1699,-130 1859,-130 1859,-78 1699,-78"/>
</g>
<g id="clust57" class="cluster">
<title>cluster_SerSelectModule_providers</title>
<polygon fill="none" stroke="black" points="1559,-78 1559,-130 1691,-130 1691,-78 1559,-78"/>
</g>
<g id="clust58" class="cluster">
<title>cluster_SerUiModule</title>
<polygon fill="none" stroke="black" stroke-dasharray="1,5" points="1435,-146 1435,-198 1543,-198 1543,-146 1435,-146"/>
</g>
<g id="clust71" class="cluster">
<title>cluster_VirtualScrollerModule</title>
<polygon fill="none" stroke="black" stroke-dasharray="1,5" points="1875,-138 1875,-206 2265,-206 2265,-138 1875,-138"/>
</g>
<g id="clust72" class="cluster">
<title>cluster_VirtualScrollerModule_declarations</title>
<polygon fill="none" stroke="black" points="2075,-146 2075,-198 2257,-198 2257,-146 2075,-146"/>
</g>
<g id="clust75" class="cluster">
<title>cluster_VirtualScrollerModule_exports</title>
<polygon fill="none" stroke="black" points="1883,-146 1883,-198 2067,-198 2067,-146 1883,-146"/>
</g>
<!-- AddressColComponent -->
<g id="node1" class="node">
<title>AddressColComponent</title>
<polygon fill="#ffffb3" stroke="black" points="1216.93,-122 1069.07,-122 1069.07,-86 1216.93,-86 1216.93,-122"/>
<text text-anchor="middle" x="1143" y="-99.8" font-family="Times,serif" font-size="14.00">AddressColComponent</text>
</g>
<!-- SerFilterModule -->
<g id="node8" class="node">
<title>SerFilterModule</title>
<polygon fill="#8dd3c7" stroke="black" points="919.04,-190 916.04,-194 895.04,-194 892.04,-190 810.96,-190 810.96,-154 919.04,-154 919.04,-190"/>
<text text-anchor="middle" x="865" y="-167.8" font-family="Times,serif" font-size="14.00">SerFilterModule</text>
</g>
<!-- AddressColComponent&#45;&gt;SerFilterModule -->
<g id="edge1" class="edge">
<title>AddressColComponent&#45;&gt;SerFilterModule</title>
<path fill="none" stroke="black" d="M1085.13,-122C1085.13,-139.68 1085.13,-164 1085.13,-164 1085.13,-164 929.13,-164 929.13,-164"/>
<polygon fill="black" stroke="black" points="929.13,-160.5 919.13,-164 929.13,-167.5 929.13,-160.5"/>
</g>
<!-- SerFormModule -->
<g id="node16" class="node">
<title>SerFormModule</title>
<polygon fill="#8dd3c7" stroke="black" points="278.04,-190 275.04,-194 254.04,-194 251.04,-190 169.96,-190 169.96,-154 278.04,-154 278.04,-190"/>
<text text-anchor="middle" x="224" y="-167.8" font-family="Times,serif" font-size="14.00">SerFormModule</text>
</g>
<!-- AddressColComponent&#45;&gt;SerFormModule -->
<g id="edge15" class="edge">
<title>AddressColComponent&#45;&gt;SerFormModule</title>
<path fill="none" stroke="black" d="M1077.21,-122.24C1077.21,-129.43 1077.21,-136 1077.21,-136 1077.21,-136 234.85,-136 234.85,-136 234.85,-136 234.85,-143.58 234.85,-143.58"/>
<polygon fill="black" stroke="black" points="231.35,-143.58 234.85,-153.58 238.35,-143.58 231.35,-143.58"/>
</g>
<!-- SerSelectModule -->
<g id="node19" class="node">
<title>SerSelectModule</title>
<polygon fill="#8dd3c7" stroke="black" points="1671.42,-190 1668.42,-194 1647.42,-194 1644.42,-190 1558.58,-190 1558.58,-154 1671.42,-154 1671.42,-190"/>
<text text-anchor="middle" x="1615" y="-167.8" font-family="Times,serif" font-size="14.00">SerSelectModule</text>
</g>
<!-- AddressColComponent&#45;&gt;SerSelectModule -->
<g id="edge31" class="edge">
<title>AddressColComponent&#45;&gt;SerSelectModule</title>
<path fill="none" stroke="black" d="M1162.58,-122.07C1162.58,-131.46 1162.58,-141 1162.58,-141 1162.58,-141 1562.79,-141 1562.79,-141 1562.79,-141 1562.79,-143.97 1562.79,-143.97"/>
<polygon fill="black" stroke="black" points="1559.29,-143.97 1562.79,-153.97 1566.29,-143.97 1559.29,-143.97"/>
</g>
<!-- SerUiModule -->
<g id="node22" class="node">
<title>SerUiModule</title>
<polygon fill="#8dd3c7" stroke="black" points="1535.21,-190 1532.21,-194 1511.21,-194 1508.21,-190 1442.79,-190 1442.79,-154 1535.21,-154 1535.21,-190"/>
<text text-anchor="middle" x="1489" y="-167.8" font-family="Times,serif" font-size="14.00">SerUiModule</text>
</g>
<!-- AddressColComponent&#45;&gt;SerUiModule -->
<g id="edge47" class="edge">
<title>AddressColComponent&#45;&gt;SerUiModule</title>
<path fill="none" stroke="black" d="M1198.67,-122.28C1198.67,-137.95 1198.67,-158 1198.67,-158 1198.67,-158 1432.68,-158 1432.68,-158"/>
<polygon fill="black" stroke="black" points="1432.68,-161.5 1442.68,-158 1432.68,-154.5 1432.68,-161.5"/>
</g>
<!-- GrowOnInputDirective -->
<g id="node2" class="node">
<title>GrowOnInputDirective</title>
<polygon fill="#ffffb3" stroke="black" points="1051.11,-122 904.89,-122 904.89,-86 1051.11,-86 1051.11,-122"/>
<text text-anchor="middle" x="978" y="-99.8" font-family="Times,serif" font-size="14.00">GrowOnInputDirective</text>
</g>
<!-- GrowOnInputDirective&#45;&gt;SerFilterModule -->
<g id="edge2" class="edge">
<title>GrowOnInputDirective&#45;&gt;SerFilterModule</title>
<path fill="none" stroke="black" d="M914.41,-122.22C914.41,-122.22 914.41,-143.73 914.41,-143.73"/>
<polygon fill="black" stroke="black" points="910.91,-143.73 914.41,-153.73 917.91,-143.73 910.91,-143.73"/>
</g>
<!-- GrowOnInputDirective&#45;&gt;SerFormModule -->
<g id="edge16" class="edge">
<title>GrowOnInputDirective&#45;&gt;SerFormModule</title>
<path fill="none" stroke="black" d="M909.55,-122.14C909.55,-128.46 909.55,-134 909.55,-134 909.55,-134 213.15,-134 213.15,-134 213.15,-134 213.15,-143.89 213.15,-143.89"/>
<polygon fill="black" stroke="black" points="209.65,-143.89 213.15,-153.89 216.65,-143.89 209.65,-143.89"/>
</g>
<!-- GrowOnInputDirective&#45;&gt;SerSelectModule -->
<g id="edge32" class="edge">
<title>GrowOnInputDirective&#45;&gt;SerSelectModule</title>
<path fill="none" stroke="black" d="M1013.99,-122.13C1013.99,-132.31 1013.99,-143 1013.99,-143 1013.99,-143 1560.79,-143 1560.79,-143 1560.79,-143 1560.79,-144.08 1560.79,-144.08"/>
<polygon fill="black" stroke="black" points="1557.29,-143.8 1560.79,-153.8 1564.29,-143.8 1557.29,-143.8"/>
</g>
<!-- GrowOnInputDirective&#45;&gt;SerUiModule -->
<g id="edge48" class="edge">
<title>GrowOnInputDirective&#45;&gt;SerUiModule</title>
<path fill="none" stroke="black" d="M1038.87,-122.04C1038.87,-138.73 1038.87,-161 1038.87,-161 1038.87,-161 1432.52,-161 1432.52,-161"/>
<polygon fill="black" stroke="black" points="1432.52,-164.5 1442.52,-161 1432.52,-157.5 1432.52,-164.5"/>
</g>
<!-- PinInputComponent -->
<g id="node3" class="node">
<title>PinInputComponent</title>
<polygon fill="#ffffb3" stroke="black" points="886.56,-122 757.44,-122 757.44,-86 886.56,-86 886.56,-122"/>
<text text-anchor="middle" x="822" y="-99.8" font-family="Times,serif" font-size="14.00">PinInputComponent</text>
</g>
<!-- PinInputComponent&#45;&gt;SerFilterModule -->
<g id="edge3" class="edge">
<title>PinInputComponent&#45;&gt;SerFilterModule</title>
<path fill="none" stroke="black" d="M829.74,-122.22C829.74,-122.22 829.74,-143.73 829.74,-143.73"/>
<polygon fill="black" stroke="black" points="826.24,-143.73 829.74,-153.73 833.24,-143.73 826.24,-143.73"/>
</g>
<!-- PinInputComponent&#45;&gt;SerFormModule -->
<g id="edge17" class="edge">
<title>PinInputComponent&#45;&gt;SerFormModule</title>
<path fill="none" stroke="black" d="M783.98,-122.03C783.98,-142.77 783.98,-174 783.98,-174 783.98,-174 288.2,-174 288.2,-174"/>
<polygon fill="black" stroke="black" points="288.2,-170.5 278.2,-174 288.2,-177.5 288.2,-170.5"/>
</g>
<!-- PinInputComponent&#45;&gt;SerSelectModule -->
<g id="edge33" class="edge">
<title>PinInputComponent&#45;&gt;SerSelectModule</title>
<path fill="none" stroke="black" d="M867.77,-122.08C867.77,-123.85 867.77,-125 867.77,-125 867.77,-125 1636.4,-125 1636.4,-125 1636.4,-125 1636.4,-143.96 1636.4,-143.96"/>
<polygon fill="black" stroke="black" points="1632.9,-143.96 1636.4,-153.96 1639.9,-143.96 1632.9,-143.96"/>
</g>
<!-- PinInputComponent&#45;&gt;SerUiModule -->
<g id="edge49" class="edge">
<title>PinInputComponent&#45;&gt;SerUiModule</title>
<path fill="none" stroke="black" d="M848.75,-122.1C848.75,-133.09 848.75,-145 848.75,-145 848.75,-145 1504.37,-145 1504.37,-145 1504.37,-145 1504.37,-145.88 1504.37,-145.88"/>
<polygon fill="black" stroke="black" points="1500.87,-143.84 1504.37,-153.84 1507.87,-143.84 1500.87,-143.84"/>
</g>
<!-- SerControlDirective -->
<g id="node4" class="node">
<title>SerControlDirective</title>
<polygon fill="#ffffb3" stroke="black" points="738.52,-122 609.48,-122 609.48,-86 738.52,-86 738.52,-122"/>
<text text-anchor="middle" x="674" y="-99.8" font-family="Times,serif" font-size="14.00">SerControlDirective</text>
</g>
<!-- SerControlDirective&#45;&gt;SerFilterModule -->
<g id="edge4" class="edge">
<title>SerControlDirective&#45;&gt;SerFilterModule</title>
<path fill="none" stroke="black" d="M720.56,-122C720.56,-139.68 720.56,-164 720.56,-164 720.56,-164 800.8,-164 800.8,-164"/>
<polygon fill="black" stroke="black" points="800.8,-167.5 810.8,-164 800.8,-160.5 800.8,-167.5"/>
</g>
<!-- SerControlDirective&#45;&gt;SerFormModule -->
<g id="edge18" class="edge">
<title>SerControlDirective&#45;&gt;SerFormModule</title>
<path fill="none" stroke="black" d="M613.29,-122.04C613.29,-138.73 613.29,-161 613.29,-161 613.29,-161 288.13,-161 288.13,-161"/>
<polygon fill="black" stroke="black" points="288.13,-157.5 278.13,-161 288.13,-164.5 288.13,-157.5"/>
</g>
<!-- SerControlDirective&#45;&gt;SerSelectModule -->
<g id="edge34" class="edge">
<title>SerControlDirective&#45;&gt;SerSelectModule</title>
<path fill="none" stroke="black" d="M684.16,-122.12C684.16,-124.97 684.16,-127 684.16,-127 684.16,-127 1618.99,-127 1618.99,-127 1618.99,-127 1618.99,-143.96 1618.99,-143.96"/>
<polygon fill="black" stroke="black" points="1615.49,-143.96 1618.99,-153.96 1622.49,-143.96 1615.49,-143.96"/>
</g>
<!-- SerControlDirective&#45;&gt;SerUiModule -->
<g id="edge50" class="edge">
<title>SerControlDirective&#45;&gt;SerUiModule</title>
<path fill="none" stroke="black" d="M665.96,-122.15C665.96,-134.27 665.96,-148 665.96,-148 665.96,-148 1489,-148 1489,-148 1489,-148 1489,-148.58 1489,-148.58"/>
<polygon fill="black" stroke="black" points="1485.5,-143.81 1489,-153.81 1492.5,-143.81 1485.5,-143.81"/>
</g>
<!-- SerErrorDirective -->
<g id="node5" class="node">
<title>SerErrorDirective</title>
<polygon fill="#ffffb3" stroke="black" points="591.28,-122 474.72,-122 474.72,-86 591.28,-86 591.28,-122"/>
<text text-anchor="middle" x="533" y="-99.8" font-family="Times,serif" font-size="14.00">SerErrorDirective</text>
</g>
<!-- SerErrorDirective&#45;&gt;SerFilterModule -->
<g id="edge5" class="edge">
<title>SerErrorDirective&#45;&gt;SerFilterModule</title>
<path fill="none" stroke="black" d="M572.37,-122.17C572.37,-141.09 572.37,-168 572.37,-168 572.37,-168 800.64,-168 800.64,-168"/>
<polygon fill="black" stroke="black" points="800.64,-171.5 810.64,-168 800.64,-164.5 800.64,-171.5"/>
</g>
<!-- SerErrorDirective&#45;&gt;SerFormModule -->
<g id="edge19" class="edge">
<title>SerErrorDirective&#45;&gt;SerFormModule</title>
<path fill="none" stroke="black" d="M553.6,-122.28C553.6,-137.95 553.6,-158 553.6,-158 553.6,-158 288.06,-158 288.06,-158"/>
<polygon fill="black" stroke="black" points="288.06,-154.5 278.06,-158 288.06,-161.5 288.06,-154.5"/>
</g>
<!-- SerErrorDirective&#45;&gt;SerSelectModule -->
<g id="edge35" class="edge">
<title>SerErrorDirective&#45;&gt;SerSelectModule</title>
<path fill="none" stroke="black" d="M516.07,-122.17C516.07,-126.05 516.07,-129 516.07,-129 516.07,-129 1601.59,-129 1601.59,-129 1601.59,-129 1601.59,-143.51 1601.59,-143.51"/>
<polygon fill="black" stroke="black" points="1598.09,-143.51 1601.59,-153.51 1605.09,-143.51 1598.09,-143.51"/>
</g>
<!-- SerErrorDirective&#45;&gt;SerUiModule -->
<g id="edge51" class="edge">
<title>SerErrorDirective&#45;&gt;SerUiModule</title>
<path fill="none" stroke="black" d="M497.3,-122.18C497.3,-135.04 497.3,-150 497.3,-150 497.3,-150 1473.63,-150 1473.63,-150 1473.63,-150 1473.63,-150.38 1473.63,-150.38"/>
<polygon fill="black" stroke="black" points="1470.13,-143.83 1473.63,-153.83 1477.13,-143.83 1470.13,-143.83"/>
</g>
<!-- SerErrorsDirective -->
<g id="node6" class="node">
<title>SerErrorsDirective</title>
<polygon fill="#ffffb3" stroke="black" points="456.72,-122 335.28,-122 335.28,-86 456.72,-86 456.72,-122"/>
<text text-anchor="middle" x="396" y="-99.8" font-family="Times,serif" font-size="14.00">SerErrorsDirective</text>
</g>
<!-- SerErrorsDirective&#45;&gt;SerFilterModule -->
<g id="edge6" class="edge">
<title>SerErrorsDirective&#45;&gt;SerFilterModule</title>
<path fill="none" stroke="black" d="M439.47,-122.31C439.47,-142.15 439.47,-171 439.47,-171 439.47,-171 800.67,-171 800.67,-171"/>
<polygon fill="black" stroke="black" points="800.67,-174.5 810.67,-171 800.67,-167.5 800.67,-174.5"/>
</g>
<!-- SerErrorsDirective&#45;&gt;SerFormModule -->
<g id="edge20" class="edge">
<title>SerErrorsDirective&#45;&gt;SerFormModule</title>
<path fill="none" stroke="black" d="M335.18,-104C274.88,-104 191.44,-104 191.44,-104 191.44,-104 191.44,-143.78 191.44,-143.78"/>
<polygon fill="black" stroke="black" points="187.94,-143.78 191.44,-153.78 194.94,-143.78 187.94,-143.78"/>
</g>
<!-- SerErrorsDirective&#45;&gt;SerSelectModule -->
<g id="edge36" class="edge">
<title>SerErrorsDirective&#45;&gt;SerSelectModule</title>
<path fill="none" stroke="black" d="M369.92,-122.21C369.92,-127.55 369.92,-132 369.92,-132 369.92,-132 1584.18,-132 1584.18,-132 1584.18,-132 1584.18,-143.87 1584.18,-143.87"/>
<polygon fill="black" stroke="black" points="1580.68,-143.87 1584.18,-153.87 1587.68,-143.87 1580.68,-143.87"/>
</g>
<!-- SerErrorsDirective&#45;&gt;SerUiModule -->
<g id="edge52" class="edge">
<title>SerErrorsDirective&#45;&gt;SerUiModule</title>
<path fill="none" stroke="black" d="M352.53,-122.15C352.53,-135.74 352.53,-152 352.53,-152 352.53,-152 1458.27,-152 1458.27,-152 1458.27,-152 1458.27,-152.18 1458.27,-152.18"/>
<polygon fill="black" stroke="black" points="1454.77,-143.85 1458.27,-153.85 1461.77,-143.85 1454.77,-143.85"/>
</g>
<!-- SerFormElementComponent -->
<g id="node7" class="node">
<title>SerFormElementComponent</title>
<polygon fill="#ffffb3" stroke="black" points="1411.48,-122 1234.52,-122 1234.52,-86 1411.48,-86 1411.48,-122"/>
<text text-anchor="middle" x="1323" y="-99.8" font-family="Times,serif" font-size="14.00">SerFormElementComponent</text>
</g>
<!-- SerFormElementComponent&#45;&gt;SerFilterModule -->
<g id="edge7" class="edge">
<title>SerFormElementComponent&#45;&gt;SerFilterModule</title>
<path fill="none" stroke="black" d="M1244.51,-122.17C1244.51,-141.09 1244.51,-168 1244.51,-168 1244.51,-168 929.37,-168 929.37,-168"/>
<polygon fill="black" stroke="black" points="929.37,-164.5 919.37,-168 929.37,-171.5 929.37,-164.5"/>
</g>
<!-- SerFormElementComponent&#45;&gt;SerFormModule -->
<g id="edge21" class="edge">
<title>SerFormElementComponent&#45;&gt;SerFormModule</title>
<path fill="none" stroke="black" d="M1239.51,-122.19C1239.51,-130.28 1239.51,-138 1239.51,-138 1239.51,-138 256.56,-138 256.56,-138 256.56,-138 256.56,-143.81 256.56,-143.81"/>
<polygon fill="black" stroke="black" points="253.06,-143.81 256.56,-153.81 260.06,-143.81 253.06,-143.81"/>
</g>
<!-- SerFormElementComponent&#45;&gt;SerSelectModule -->
<g id="edge37" class="edge">
<title>SerFormElementComponent&#45;&gt;SerSelectModule</title>
<path fill="none" stroke="black" d="M1411.66,-98C1480.66,-98 1564.78,-98 1564.78,-98 1564.78,-98 1564.78,-143.71 1564.78,-143.71"/>
<polygon fill="black" stroke="black" points="1561.28,-143.71 1564.78,-153.71 1568.28,-143.71 1561.28,-143.71"/>
</g>
<!-- SerFormElementComponent&#45;&gt;SerUiModule -->
<g id="edge53" class="edge">
<title>SerFormElementComponent&#45;&gt;SerUiModule</title>
<path fill="none" stroke="black" d="M1411.58,-110C1463.8,-110 1519.73,-110 1519.73,-110 1519.73,-110 1519.73,-143.73 1519.73,-143.73"/>
<polygon fill="black" stroke="black" points="1516.24,-143.73 1519.73,-153.73 1523.24,-143.73 1516.24,-143.73"/>
</g>
<!-- AddressColComponent  -->
<g id="node9" class="node">
<title>AddressColComponent </title>
<polygon fill="#fb8072" stroke="black" points="629.43,-258 478.57,-258 478.57,-222 629.43,-222 629.43,-258"/>
<text text-anchor="middle" x="554" y="-235.8" font-family="Times,serif" font-size="14.00">AddressColComponent </text>
</g>
<!-- SerFilterModule&#45;&gt;AddressColComponent  -->
<g id="edge8" class="edge">
<title>SerFilterModule&#45;&gt;AddressColComponent </title>
<path fill="none" stroke="black" stroke-dasharray="5,2" d="M810.95,-187C738.08,-187 617.33,-187 617.33,-187 617.33,-187 617.33,-211.76 617.33,-211.76"/>
<polygon fill="black" stroke="black" points="613.83,-211.76 617.33,-221.76 620.83,-211.76 613.83,-211.76"/>
</g>
<!-- GrowOnInputDirective  -->
<g id="node10" class="node">
<title>GrowOnInputDirective </title>
<polygon fill="#fb8072" stroke="black" points="460.11,-258 309.89,-258 309.89,-222 460.11,-222 460.11,-258"/>
<text text-anchor="middle" x="385" y="-235.8" font-family="Times,serif" font-size="14.00">GrowOnInputDirective </text>
</g>
<!-- SerFilterModule&#45;&gt;GrowOnInputDirective  -->
<g id="edge9" class="edge">
<title>SerFilterModule&#45;&gt;GrowOnInputDirective </title>
<path fill="none" stroke="black" stroke-dasharray="5,2" d="M810.67,-181C685.46,-181 387.31,-181 387.31,-181 387.31,-181 387.31,-211.98 387.31,-211.98"/>
<polygon fill="black" stroke="black" points="383.81,-211.98 387.31,-221.98 390.81,-211.98 383.81,-211.98"/>
</g>
<!-- PinInputComponent  -->
<g id="node11" class="node">
<title>PinInputComponent </title>
<polygon fill="#fb8072" stroke="black" points="1410.56,-258 1277.44,-258 1277.44,-222 1410.56,-222 1410.56,-258"/>
<text text-anchor="middle" x="1344" y="-235.8" font-family="Times,serif" font-size="14.00">PinInputComponent </text>
</g>
<!-- SerFilterModule&#45;&gt;PinInputComponent  -->
<g id="edge10" class="edge">
<title>SerFilterModule&#45;&gt;PinInputComponent </title>
<path fill="none" stroke="black" stroke-dasharray="5,2" d="M919.11,-174C1048.7,-174 1366.18,-174 1366.18,-174 1366.18,-174 1366.18,-211.97 1366.18,-211.97"/>
<polygon fill="black" stroke="black" points="1362.68,-211.97 1366.18,-221.97 1369.68,-211.97 1362.68,-211.97"/>
</g>
<!-- SerControlDirective  -->
<g id="node12" class="node">
<title>SerControlDirective </title>
<polygon fill="#fb8072" stroke="black" points="1259.52,-258 1126.48,-258 1126.48,-222 1259.52,-222 1259.52,-258"/>
<text text-anchor="middle" x="1193" y="-235.8" font-family="Times,serif" font-size="14.00">SerControlDirective </text>
</g>
<!-- SerFilterModule&#45;&gt;SerControlDirective  -->
<g id="edge11" class="edge">
<title>SerFilterModule&#45;&gt;SerControlDirective </title>
<path fill="none" stroke="black" stroke-dasharray="5,2" d="M919.26,-184C1009.5,-184 1180.63,-184 1180.63,-184 1180.63,-184 1180.63,-211.97 1180.63,-211.97"/>
<polygon fill="black" stroke="black" points="1177.13,-211.97 1180.63,-221.97 1184.13,-211.97 1177.13,-211.97"/>
</g>
<!-- SerErrorDirective  -->
<g id="node13" class="node">
<title>SerErrorDirective </title>
<polygon fill="#fb8072" stroke="black" points="1108.78,-258 989.22,-258 989.22,-222 1108.78,-222 1108.78,-258"/>
<text text-anchor="middle" x="1049" y="-235.8" font-family="Times,serif" font-size="14.00">SerErrorDirective </text>
</g>
<!-- SerFilterModule&#45;&gt;SerErrorDirective  -->
<g id="edge12" class="edge">
<title>SerFilterModule&#45;&gt;SerErrorDirective </title>
<path fill="none" stroke="black" stroke-dasharray="5,2" d="M919.2,-187C966.1,-187 1026.43,-187 1026.43,-187 1026.43,-187 1026.43,-211.76 1026.43,-211.76"/>
<polygon fill="black" stroke="black" points="1022.93,-211.76 1026.43,-221.76 1029.93,-211.76 1022.93,-211.76"/>
</g>
<!-- SerErrorsDirective  -->
<g id="node14" class="node">
<title>SerErrorsDirective </title>
<polygon fill="#fb8072" stroke="black" points="971.72,-258 846.28,-258 846.28,-222 971.72,-222 971.72,-258"/>
<text text-anchor="middle" x="909" y="-235.8" font-family="Times,serif" font-size="14.00">SerErrorsDirective </text>
</g>
<!-- SerFilterModule&#45;&gt;SerErrorsDirective  -->
<g id="edge13" class="edge">
<title>SerFilterModule&#45;&gt;SerErrorsDirective </title>
<path fill="none" stroke="black" stroke-dasharray="5,2" d="M894.98,-190.22C894.98,-190.22 894.98,-211.73 894.98,-211.73"/>
<polygon fill="black" stroke="black" points="891.48,-211.73 894.98,-221.73 898.48,-211.73 891.48,-211.73"/>
</g>
<!-- SerFormElementComponent  -->
<g id="node15" class="node">
<title>SerFormElementComponent </title>
<polygon fill="#fb8072" stroke="black" points="828.48,-258 647.52,-258 647.52,-222 828.48,-222 828.48,-258"/>
<text text-anchor="middle" x="738" y="-235.8" font-family="Times,serif" font-size="14.00">SerFormElementComponent </text>
</g>
<!-- SerFilterModule&#45;&gt;SerFormElementComponent  -->
<g id="edge14" class="edge">
<title>SerFilterModule&#45;&gt;SerFormElementComponent </title>
<path fill="none" stroke="black" stroke-dasharray="5,2" d="M815.11,-190.22C815.11,-190.22 815.11,-211.73 815.11,-211.73"/>
<polygon fill="black" stroke="black" points="811.61,-211.73 815.11,-221.73 818.61,-211.73 811.61,-211.73"/>
</g>
<!-- SerFormModule&#45;&gt;AddressColComponent  -->
<g id="edge22" class="edge">
<title>SerFormModule&#45;&gt;AddressColComponent </title>
<path fill="none" stroke="black" stroke-dasharray="5,2" d="M278.14,-184C367.2,-184 534.84,-184 534.84,-184 534.84,-184 534.84,-211.97 534.84,-211.97"/>
<polygon fill="black" stroke="black" points="531.34,-211.97 534.84,-221.97 538.34,-211.97 531.34,-211.97"/>
</g>
<!-- SerFormModule&#45;&gt;GrowOnInputDirective  -->
<g id="edge23" class="edge">
<title>SerFormModule&#45;&gt;GrowOnInputDirective </title>
<path fill="none" stroke="black" stroke-dasharray="5,2" d="M276.21,-190.22C276.21,-210.37 276.21,-240 276.21,-240 276.21,-240 299.74,-240 299.74,-240"/>
<polygon fill="black" stroke="black" points="299.74,-243.5 309.74,-240 299.74,-236.5 299.74,-243.5"/>
</g>
<!-- SerFormModule&#45;&gt;PinInputComponent  -->
<g id="edge24" class="edge">
<title>SerFormModule&#45;&gt;PinInputComponent </title>
<path fill="none" stroke="black" stroke-dasharray="5,2" d="M244.95,-190.08C244.95,-191.85 244.95,-193 244.95,-193 244.95,-193 1321.82,-193 1321.82,-193 1321.82,-193 1321.82,-211.96 1321.82,-211.96"/>
<polygon fill="black" stroke="black" points="1318.32,-211.96 1321.82,-221.96 1325.32,-211.96 1318.32,-211.96"/>
</g>
<!-- SerFormModule&#45;&gt;SerControlDirective  -->
<g id="edge25" class="edge">
<title>SerFormModule&#45;&gt;SerControlDirective </title>
<path fill="none" stroke="black" stroke-dasharray="5,2" d="M219.87,-190.21C219.87,-195.55 219.87,-200 219.87,-200 219.87,-200 1144.54,-200 1144.54,-200 1144.54,-200 1144.54,-211.87 1144.54,-211.87"/>
<polygon fill="black" stroke="black" points="1141.04,-211.87 1144.54,-221.87 1148.04,-211.87 1141.04,-211.87"/>
</g>
<!-- SerFormModule&#45;&gt;SerErrorDirective  -->
<g id="edge26" class="edge">
<title>SerFormModule&#45;&gt;SerErrorDirective </title>
<path fill="none" stroke="black" stroke-dasharray="5,2" d="M274.14,-190.19C274.14,-198.28 274.14,-206 274.14,-206 274.14,-206 1001.55,-206 1001.55,-206 1001.55,-206 1001.55,-211.81 1001.55,-211.81"/>
<polygon fill="black" stroke="black" points="998.05,-211.81 1001.55,-221.81 1005.05,-211.81 998.05,-211.81"/>
</g>
<!-- SerFormModule&#45;&gt;SerErrorsDirective  -->
<g id="edge27" class="edge">
<title>SerFormModule&#45;&gt;SerErrorsDirective </title>
<path fill="none" stroke="black" stroke-dasharray="5,2" d="M272.08,-190.15C272.08,-202.27 272.08,-216 272.08,-216 272.08,-216 870.68,-216 870.68,-216 870.68,-216 870.68,-216.58 870.68,-216.58"/>
<polygon fill="black" stroke="black" points="867.18,-211.81 870.68,-221.81 874.18,-211.81 867.18,-211.81"/>
</g>
<!-- SerFormModule&#45;&gt;SerFormElementComponent  -->
<g id="edge29" class="edge">
<title>SerFormModule&#45;&gt;SerFormElementComponent </title>
<path fill="none" stroke="black" stroke-dasharray="5,2" d="M278.41,-177C403.79,-177 702.36,-177 702.36,-177 702.36,-177 702.36,-211.78 702.36,-211.78"/>
<polygon fill="black" stroke="black" points="698.86,-211.78 702.36,-221.78 705.86,-211.78 698.86,-211.78"/>
</g>
<!-- SerFilterModule  -->
<g id="node17" class="node">
<title>SerFilterModule </title>
<polygon fill="#fb8072" stroke="black" points="270.04,-258 157.96,-258 157.96,-222 270.04,-222 270.04,-258"/>
<text text-anchor="middle" x="214" y="-235.8" font-family="Times,serif" font-size="14.00">SerFilterModule </text>
</g>
<!-- SerFormModule&#45;&gt;SerFilterModule  -->
<g id="edge28" class="edge">
<title>SerFormModule&#45;&gt;SerFilterModule </title>
<path fill="none" stroke="black" stroke-dasharray="5,2" d="M194.8,-190.22C194.8,-190.22 194.8,-211.73 194.8,-211.73"/>
<polygon fill="black" stroke="black" points="191.3,-211.73 194.8,-221.73 198.3,-211.73 191.3,-211.73"/>
</g>
<!-- SerSelectModule  -->
<g id="node18" class="node">
<title>SerSelectModule </title>
<polygon fill="#fb8072" stroke="black" points="139.92,-258 24.08,-258 24.08,-222 139.92,-222 139.92,-258"/>
<text text-anchor="middle" x="82" y="-235.8" font-family="Times,serif" font-size="14.00">SerSelectModule </text>
</g>
<!-- SerFormModule&#45;&gt;SerSelectModule  -->
<g id="edge30" class="edge">
<title>SerFormModule&#45;&gt;SerSelectModule </title>
<path fill="none" stroke="black" stroke-dasharray="5,2" d="M169.91,-172C129.78,-172 82,-172 82,-172 82,-172 82,-211.78 82,-211.78"/>
<polygon fill="black" stroke="black" points="78.5,-211.78 82,-221.78 85.5,-211.78 78.5,-211.78"/>
</g>
<!-- SerSelectModule&#45;&gt;AddressColComponent  -->
<g id="edge39" class="edge">
<title>SerSelectModule&#45;&gt;AddressColComponent </title>
<path fill="none" stroke="black" stroke-dasharray="5,2" d="M1586.9,-190.24C1586.9,-197.43 1586.9,-204 1586.9,-204 1586.9,-204 625.42,-204 625.42,-204 625.42,-204 625.42,-211.58 625.42,-211.58"/>
<polygon fill="black" stroke="black" points="621.92,-211.58 625.42,-221.58 628.92,-211.58 621.92,-211.58"/>
</g>
<!-- SerSelectModule&#45;&gt;GrowOnInputDirective  -->
<g id="edge40" class="edge">
<title>SerSelectModule&#45;&gt;GrowOnInputDirective </title>
<path fill="none" stroke="black" stroke-dasharray="5,2" d="M1572.84,-190.17C1572.84,-194.05 1572.84,-197 1572.84,-197 1572.84,-197 422.08,-197 422.08,-197 422.08,-197 422.08,-211.51 422.08,-211.51"/>
<polygon fill="black" stroke="black" points="418.58,-211.51 422.08,-221.51 425.58,-211.51 418.58,-211.51"/>
</g>
<!-- SerSelectModule&#45;&gt;PinInputComponent  -->
<g id="edge41" class="edge">
<title>SerSelectModule&#45;&gt;PinInputComponent </title>
<path fill="none" stroke="black" stroke-dasharray="5,2" d="M1657.16,-190.29C1657.16,-212.21 1657.16,-246 1657.16,-246 1657.16,-246 1420.8,-246 1420.8,-246"/>
<polygon fill="black" stroke="black" points="1420.8,-242.5 1410.8,-246 1420.8,-249.5 1420.8,-242.5"/>
</g>
<!-- SerSelectModule&#45;&gt;SerControlDirective  -->
<g id="edge42" class="edge">
<title>SerSelectModule&#45;&gt;SerControlDirective </title>
<path fill="none" stroke="black" stroke-dasharray="5,2" d="M1643.1,-190.15C1643.1,-203.74 1643.1,-220 1643.1,-220 1643.1,-220 1254.51,-220 1254.51,-220 1254.51,-220 1254.51,-220.18 1254.51,-220.18"/>
<polygon fill="black" stroke="black" points="1251.01,-211.85 1254.51,-221.85 1258.01,-211.85 1251.01,-211.85"/>
</g>
<!-- SerSelectModule&#45;&gt;SerErrorDirective  -->
<g id="edge43" class="edge">
<title>SerSelectModule&#45;&gt;SerErrorDirective </title>
<path fill="none" stroke="black" stroke-dasharray="5,2" d="M1629.05,-190.18C1629.05,-203.04 1629.05,-218 1629.05,-218 1629.05,-218 1100.97,-218 1100.97,-218 1100.97,-218 1100.97,-218.38 1100.97,-218.38"/>
<polygon fill="black" stroke="black" points="1097.47,-211.83 1100.97,-221.83 1104.47,-211.83 1097.47,-211.83"/>
</g>
<!-- SerSelectModule&#45;&gt;SerErrorsDirective  -->
<g id="edge44" class="edge">
<title>SerSelectModule&#45;&gt;SerErrorsDirective </title>
<path fill="none" stroke="black" stroke-dasharray="5,2" d="M1615,-190.1C1615,-201.09 1615,-213 1615,-213 1615,-213 954.16,-213 954.16,-213 954.16,-213 954.16,-213.88 954.16,-213.88"/>
<polygon fill="black" stroke="black" points="950.66,-211.84 954.16,-221.84 957.66,-211.84 950.66,-211.84"/>
</g>
<!-- SerSelectModule&#45;&gt;SerFormElementComponent  -->
<g id="edge45" class="edge">
<title>SerSelectModule&#45;&gt;SerFormElementComponent </title>
<path fill="none" stroke="black" stroke-dasharray="5,2" d="M1600.95,-190.13C1600.95,-200.31 1600.95,-211 1600.95,-211 1600.95,-211 823.86,-211 823.86,-211 823.86,-211 823.86,-212.08 823.86,-212.08"/>
<polygon fill="black" stroke="black" points="820.36,-211.8 823.86,-221.8 827.36,-211.8 820.36,-211.8"/>
</g>
<!-- VirtualScrollerModule -->
<g id="node20" class="node">
<title>VirtualScrollerModule</title>
<polygon fill="#8dd3c7" stroke="black" points="1850.52,-122 1847.52,-126 1826.52,-126 1823.52,-122 1707.48,-122 1707.48,-86 1850.52,-86 1850.52,-122"/>
<text text-anchor="middle" x="1779" y="-99.8" font-family="Times,serif" font-size="14.00">VirtualScrollerModule</text>
</g>
<!-- VirtualScrollerModule&#45;&gt;SerSelectModule -->
<g id="edge38" class="edge">
<title>VirtualScrollerModule&#45;&gt;SerSelectModule</title>
<path fill="none" stroke="black" d="M1755.08,-122.29C1755.08,-144.21 1755.08,-178 1755.08,-178 1755.08,-178 1681.57,-178 1681.57,-178"/>
<polygon fill="black" stroke="black" points="1681.57,-174.5 1671.57,-178 1681.57,-181.5 1681.57,-174.5"/>
</g>
<!-- VirtualScrollerComponent  -->
<g id="node24" class="node">
<title>VirtualScrollerComponent </title>
<polygon fill="#fb8072" stroke="black" points="2059.3,-190 1890.7,-190 1890.7,-154 2059.3,-154 2059.3,-190"/>
<text text-anchor="middle" x="1975" y="-167.8" font-family="Times,serif" font-size="14.00">VirtualScrollerComponent </text>
</g>
<!-- VirtualScrollerModule&#45;&gt;VirtualScrollerComponent  -->
<g id="edge62" class="edge">
<title>VirtualScrollerModule&#45;&gt;VirtualScrollerComponent </title>
<path fill="none" stroke="black" stroke-dasharray="5,2" d="M1802.92,-122.27C1802.92,-140.56 1802.92,-166 1802.92,-166 1802.92,-166 1880.47,-166 1880.47,-166"/>
<polygon fill="black" stroke="black" points="1880.47,-169.5 1890.47,-166 1880.47,-162.5 1880.47,-169.5"/>
</g>
<!-- DataService -->
<g id="node21" class="node">
<title>DataService</title>
<ellipse fill="#fdb462" stroke="black" cx="1625" cy="-104" rx="58.44" ry="18"/>
<text text-anchor="middle" x="1625" y="-99.8" font-family="Times,serif" font-size="14.00">DataService</text>
</g>
<!-- DataService&#45;&gt;SerSelectModule -->
<g id="edge46" class="edge">
<title>DataService&#45;&gt;SerSelectModule</title>
<path fill="none" stroke="black" d="M1653.8,-119.77C1653.8,-119.77 1653.8,-143.91 1653.8,-143.91"/>
<polygon fill="black" stroke="black" points="1650.3,-143.91 1653.8,-153.91 1657.3,-143.91 1650.3,-143.91"/>
</g>
<!-- SerUiModule&#45;&gt;AddressColComponent  -->
<g id="edge54" class="edge">
<title>SerUiModule&#45;&gt;AddressColComponent </title>
<path fill="none" stroke="black" stroke-dasharray="5,2" d="M1479.78,-190.14C1479.78,-196.46 1479.78,-202 1479.78,-202 1479.78,-202 621.38,-202 621.38,-202 621.38,-202 621.38,-211.89 621.38,-211.89"/>
<polygon fill="black" stroke="black" points="617.88,-211.89 621.38,-221.89 624.88,-211.89 617.88,-211.89"/>
</g>
<!-- SerUiModule&#45;&gt;GrowOnInputDirective  -->
<g id="edge55" class="edge">
<title>SerUiModule&#45;&gt;GrowOnInputDirective </title>
<path fill="none" stroke="black" stroke-dasharray="5,2" d="M1461.34,-190.12C1461.34,-192.97 1461.34,-195 1461.34,-195 1461.34,-195 404.69,-195 404.69,-195 404.69,-195 404.69,-211.96 404.69,-211.96"/>
<polygon fill="black" stroke="black" points="401.19,-211.96 404.69,-221.96 408.19,-211.96 401.19,-211.96"/>
</g>
<!-- SerUiModule&#45;&gt;PinInputComponent  -->
<g id="edge56" class="edge">
<title>SerUiModule&#45;&gt;PinInputComponent </title>
<path fill="none" stroke="black" stroke-dasharray="5,2" d="M1516.66,-190.27C1516.66,-208.56 1516.66,-234 1516.66,-234 1516.66,-234 1420.76,-234 1420.76,-234"/>
<polygon fill="black" stroke="black" points="1420.76,-230.5 1410.76,-234 1420.76,-237.5 1420.76,-230.5"/>
</g>
<!-- SerUiModule&#45;&gt;SerControlDirective  -->
<g id="edge57" class="edge">
<title>SerUiModule&#45;&gt;SerControlDirective </title>
<path fill="none" stroke="black" stroke-dasharray="5,2" d="M1442.82,-181C1373.23,-181 1249.51,-181 1249.51,-181 1249.51,-181 1249.51,-211.98 1249.51,-211.98"/>
<polygon fill="black" stroke="black" points="1246.01,-211.98 1249.51,-221.98 1253.01,-211.98 1246.01,-211.98"/>
</g>
<!-- SerUiModule&#45;&gt;SerErrorDirective  -->
<g id="edge58" class="edge">
<title>SerUiModule&#45;&gt;SerErrorDirective </title>
<path fill="none" stroke="black" stroke-dasharray="5,2" d="M1442.8,-177C1338.36,-177 1093.05,-177 1093.05,-177 1093.05,-177 1093.05,-211.78 1093.05,-211.78"/>
<polygon fill="black" stroke="black" points="1089.55,-211.78 1093.05,-221.78 1096.55,-211.78 1089.55,-211.78"/>
</g>
<!-- SerUiModule&#45;&gt;SerErrorsDirective  -->
<g id="edge59" class="edge">
<title>SerUiModule&#45;&gt;SerErrorsDirective </title>
<path fill="none" stroke="black" stroke-dasharray="5,2" d="M1442.86,-171C1310.13,-171 936.72,-171 936.72,-171 936.72,-171 936.72,-211.87 936.72,-211.87"/>
<polygon fill="black" stroke="black" points="933.22,-211.87 936.72,-221.87 940.22,-211.87 933.22,-211.87"/>
</g>
<!-- SerUiModule&#45;&gt;SerFormElementComponent  -->
<g id="edge60" class="edge">
<title>SerUiModule&#45;&gt;SerFormElementComponent </title>
<path fill="none" stroke="black" stroke-dasharray="5,2" d="M1498.22,-190.07C1498.22,-199.46 1498.22,-209 1498.22,-209 1498.22,-209 819.49,-209 819.49,-209 819.49,-209 819.49,-211.97 819.49,-211.97"/>
<polygon fill="black" stroke="black" points="815.99,-211.97 819.49,-221.97 822.99,-211.97 815.99,-211.97"/>
</g>
<!-- VirtualScrollerComponent -->
<g id="node23" class="node">
<title>VirtualScrollerComponent</title>
<polygon fill="#ffffb3" stroke="black" points="2248.8,-190 2083.2,-190 2083.2,-154 2248.8,-154 2248.8,-190"/>
<text text-anchor="middle" x="2166" y="-167.8" font-family="Times,serif" font-size="14.00">VirtualScrollerComponent</text>
</g>
<!-- VirtualScrollerComponent&#45;&gt;VirtualScrollerModule -->
<g id="edge61" class="edge">
<title>VirtualScrollerComponent&#45;&gt;VirtualScrollerModule</title>
<path fill="none" stroke="black" d="M2166,-153.78C2166,-133.63 2166,-104 2166,-104 2166,-104 1860.88,-104 1860.88,-104"/>
<polygon fill="black" stroke="black" points="1860.88,-100.5 1850.88,-104 1860.88,-107.5 1860.88,-100.5"/>
</g>
</g>
</svg>
