<?xml version="1.0" encoding="UTF-8" standalone="no"?>
<!DOCTYPE svg PUBLIC "-//W3C//DTD SVG 1.1//EN"
 "http://www.w3.org/Graphics/SVG/1.1/DTD/svg11.dtd">
<!-- Generated by graphviz version 2.44.1 (20200629.0846)
 -->
<!-- Title: dependencies Pages: 1 -->
<svg width="1440pt" height="284pt"
 viewBox="0.00 0.00 1440.00 284.00" xmlns="http://www.w3.org/2000/svg" xmlns:xlink="http://www.w3.org/1999/xlink">
<g id="graph0" class="graph" transform="scale(1 1) rotate(0) translate(4 280)">
<title>dependencies</title>
<polygon fill="white" stroke="transparent" points="-4,4 -4,-280 1436,-280 1436,4 -4,4"/>
<text text-anchor="start" x="695.01" y="-42.4" font-family="sans-serif" font-weight="bold" font-size="14.00">Legend</text>
<polygon fill="#ffffb3" stroke="transparent" points="482,-10 482,-30 502,-30 502,-10 482,-10"/>
<text text-anchor="start" x="505.63" y="-15.4" font-family="sans-serif" font-size="14.00"> &#160;Declarations</text>
<polygon fill="#8dd3c7" stroke="transparent" points="595,-10 595,-30 615,-30 615,-10 595,-10"/>
<text text-anchor="start" x="618.73" y="-15.4" font-family="sans-serif" font-size="14.00"> &#160;Module</text>
<polygon fill="#80b1d3" stroke="transparent" points="681,-10 681,-30 701,-30 701,-10 681,-10"/>
<text text-anchor="start" x="704.78" y="-15.4" font-family="sans-serif" font-size="14.00"> &#160;Bootstrap</text>
<polygon fill="#fdb462" stroke="transparent" points="778,-10 778,-30 798,-30 798,-10 778,-10"/>
<text text-anchor="start" x="801.67" y="-15.4" font-family="sans-serif" font-size="14.00"> &#160;Providers</text>
<polygon fill="#fb8072" stroke="transparent" points="874,-10 874,-30 894,-30 894,-10 874,-10"/>
<text text-anchor="start" x="897.73" y="-15.4" font-family="sans-serif" font-size="14.00"> &#160;Exports</text>
<g id="clust1" class="cluster">
<title>cluster_SerSelectModule</title>
<polygon fill="none" stroke="black" stroke-dasharray="1,5" points="8,-70 8,-268 1424,-268 1424,-70 8,-70"/>
</g>
<g id="clust13" class="cluster">
<title>cluster_SerSelectModule_providers</title>
<polygon fill="none" stroke="black" points="1284,-78 1284,-130 1416,-130 1416,-78 1284,-78"/>
</g>
<g id="clust11" class="cluster">
<title>cluster_SerSelectModule_exports</title>
<polygon fill="none" stroke="black" points="152,-208 152,-260 1268,-260 1268,-208 152,-208"/>
</g>
<g id="clust10" class="cluster">
<title>cluster_SerSelectModule_imports</title>
<polygon fill="none" stroke="black" points="1116,-78 1116,-130 1276,-130 1276,-78 1116,-78"/>
</g>
<g id="clust2" class="cluster">
<title>cluster_SerSelectModule_declarations</title>
<polygon fill="none" stroke="black" points="16,-78 16,-130 1108,-130 1108,-78 16,-78"/>
</g>
<!-- AddressColComponent -->
<g id="node1" class="node">
<title>AddressColComponent</title>
<polygon fill="#ffffb3" stroke="black" points="1099.93,-122 952.07,-122 952.07,-86 1099.93,-86 1099.93,-122"/>
<text text-anchor="middle" x="1026" y="-99.8" font-family="Times,serif" font-size="14.00">AddressColComponent</text>
</g>
<!-- SerSelectModule -->
<g id="node8" class="node">
<title>SerSelectModule</title>
<polygon fill="#8dd3c7" stroke="black" points="761.42,-187 758.42,-191 737.42,-191 734.42,-187 648.58,-187 648.58,-151 761.42,-151 761.42,-187"/>
<text text-anchor="middle" x="705" y="-164.8" font-family="Times,serif" font-size="14.00">SerSelectModule</text>
</g>
<!-- AddressColComponent&#45;&gt;SerSelectModule -->
<g id="edge1" class="edge">
<title>AddressColComponent&#45;&gt;SerSelectModule</title>
<path fill="none" stroke="black" d="M1021.67,-122.03C1021.67,-138.4 1021.67,-160 1021.67,-160 1021.67,-160 771.25,-160 771.25,-160"/>
<polygon fill="black" stroke="black" points="771.25,-156.5 761.25,-160 771.25,-163.5 771.25,-156.5"/>
</g>
<!-- GrowOnInputDirective -->
<g id="node2" class="node">
<title>GrowOnInputDirective</title>
<polygon fill="#ffffb3" stroke="black" points="934.11,-122 787.89,-122 787.89,-86 934.11,-86 934.11,-122"/>
<text text-anchor="middle" x="861" y="-99.8" font-family="Times,serif" font-size="14.00">GrowOnInputDirective</text>
</g>
<!-- GrowOnInputDirective&#45;&gt;SerSelectModule -->
<g id="edge2" class="edge">
<title>GrowOnInputDirective&#45;&gt;SerSelectModule</title>
<path fill="none" stroke="black" d="M833.82,-122.19C833.82,-137.18 833.82,-156 833.82,-156 833.82,-156 771.5,-156 771.5,-156"/>
<polygon fill="black" stroke="black" points="771.5,-152.5 761.5,-156 771.5,-159.5 771.5,-152.5"/>
</g>
<!-- PinInputComponent -->
<g id="node3" class="node">
<title>PinInputComponent</title>
<polygon fill="#ffffb3" stroke="black" points="769.56,-122 640.44,-122 640.44,-86 769.56,-86 769.56,-122"/>
<text text-anchor="middle" x="705" y="-99.8" font-family="Times,serif" font-size="14.00">PinInputComponent</text>
</g>
<!-- PinInputComponent&#45;&gt;SerSelectModule -->
<g id="edge3" class="edge">
<title>PinInputComponent&#45;&gt;SerSelectModule</title>
<path fill="none" stroke="black" d="M705,-122.11C705,-122.11 705,-140.99 705,-140.99"/>
<polygon fill="black" stroke="black" points="701.5,-140.99 705,-150.99 708.5,-140.99 701.5,-140.99"/>
</g>
<!-- SerControlDirective -->
<g id="node4" class="node">
<title>SerControlDirective</title>
<polygon fill="#ffffb3" stroke="black" points="621.52,-122 492.48,-122 492.48,-86 621.52,-86 621.52,-122"/>
<text text-anchor="middle" x="557" y="-99.8" font-family="Times,serif" font-size="14.00">SerControlDirective</text>
</g>
<!-- SerControlDirective&#45;&gt;SerSelectModule -->
<g id="edge4" class="edge">
<title>SerControlDirective&#45;&gt;SerSelectModule</title>
<path fill="none" stroke="black" d="M541.04,-122.19C541.04,-137.18 541.04,-156 541.04,-156 541.04,-156 638.57,-156 638.57,-156"/>
<polygon fill="black" stroke="black" points="638.57,-159.5 648.57,-156 638.57,-152.5 638.57,-159.5"/>
</g>
<!-- SerErrorDirective -->
<g id="node5" class="node">
<title>SerErrorDirective</title>
<polygon fill="#ffffb3" stroke="black" points="474.28,-122 357.72,-122 357.72,-86 474.28,-86 474.28,-122"/>
<text text-anchor="middle" x="416" y="-99.8" font-family="Times,serif" font-size="14.00">SerErrorDirective</text>
</g>
<!-- SerErrorDirective&#45;&gt;SerSelectModule -->
<g id="edge5" class="edge">
<title>SerErrorDirective&#45;&gt;SerSelectModule</title>
<path fill="none" stroke="black" d="M416.26,-122.03C416.26,-138.4 416.26,-160 416.26,-160 416.26,-160 638.64,-160 638.64,-160"/>
<polygon fill="black" stroke="black" points="638.64,-163.5 648.64,-160 638.64,-156.5 638.64,-163.5"/>
</g>
<!-- SerErrorsDirective -->
<g id="node6" class="node">
<title>SerErrorsDirective</title>
<polygon fill="#ffffb3" stroke="black" points="339.72,-122 218.28,-122 218.28,-86 339.72,-86 339.72,-122"/>
<text text-anchor="middle" x="279" y="-99.8" font-family="Times,serif" font-size="14.00">SerErrorsDirective</text>
</g>
<!-- SerErrorsDirective&#45;&gt;SerSelectModule -->
<g id="edge6" class="edge">
<title>SerErrorsDirective&#45;&gt;SerSelectModule</title>
<path fill="none" stroke="black" d="M299.29,-122.3C299.29,-140.27 299.29,-165 299.29,-165 299.29,-165 638.59,-165 638.59,-165"/>
<polygon fill="black" stroke="black" points="638.59,-168.5 648.59,-165 638.59,-161.5 638.59,-168.5"/>
</g>
<!-- SerFormElementComponent -->
<g id="node7" class="node">
<title>SerFormElementComponent</title>
<polygon fill="#ffffb3" stroke="black" points="200.48,-122 23.52,-122 23.52,-86 200.48,-86 200.48,-122"/>
<text text-anchor="middle" x="112" y="-99.8" font-family="Times,serif" font-size="14.00">SerFormElementComponent</text>
</g>
<!-- SerFormElementComponent&#45;&gt;SerSelectModule -->
<g id="edge7" class="edge">
<title>SerFormElementComponent&#45;&gt;SerSelectModule</title>
<path fill="none" stroke="black" d="M180.12,-122.11C180.12,-141.34 180.12,-169 180.12,-169 180.12,-169 638.58,-169 638.58,-169"/>
<polygon fill="black" stroke="black" points="638.58,-172.5 648.58,-169 638.58,-165.5 638.58,-172.5"/>
</g>
<!-- AddressColComponent  -->
<g id="node10" class="node">
<title>AddressColComponent </title>
<polygon fill="#fb8072" stroke="black" points="1260.43,-252 1109.57,-252 1109.57,-216 1260.43,-216 1260.43,-252"/>
<text text-anchor="middle" x="1185" y="-229.8" font-family="Times,serif" font-size="14.00">AddressColComponent </text>
</g>
<!-- SerSelectModule&#45;&gt;AddressColComponent  -->
<g id="edge9" class="edge">
<title>SerSelectModule&#45;&gt;AddressColComponent </title>
<path fill="none" stroke="black" stroke-dasharray="5,2" d="M761.41,-174C874.21,-174 1116.89,-174 1116.89,-174 1116.89,-174 1116.89,-206 1116.89,-206"/>
<polygon fill="black" stroke="black" points="1113.39,-206 1116.89,-216 1120.39,-206 1113.39,-206"/>
</g>
<!-- GrowOnInputDirective  -->
<g id="node11" class="node">
<title>GrowOnInputDirective </title>
<polygon fill="#fb8072" stroke="black" points="1091.11,-252 940.89,-252 940.89,-216 1091.11,-216 1091.11,-252"/>
<text text-anchor="middle" x="1016" y="-229.8" font-family="Times,serif" font-size="14.00">GrowOnInputDirective </text>
</g>
<!-- SerSelectModule&#45;&gt;GrowOnInputDirective  -->
<g id="edge10" class="edge">
<title>SerSelectModule&#45;&gt;GrowOnInputDirective </title>
<path fill="none" stroke="black" stroke-dasharray="5,2" d="M761.34,-178C832.74,-178 946.61,-178 946.61,-178 946.61,-178 946.61,-205.97 946.61,-205.97"/>
<polygon fill="black" stroke="black" points="943.11,-205.97 946.61,-215.97 950.11,-205.97 943.11,-205.97"/>
</g>
<!-- PinInputComponent  -->
<g id="node12" class="node">
<title>PinInputComponent </title>
<polygon fill="#fb8072" stroke="black" points="922.56,-252 789.44,-252 789.44,-216 922.56,-216 922.56,-252"/>
<text text-anchor="middle" x="856" y="-229.8" font-family="Times,serif" font-size="14.00">PinInputComponent </text>
</g>
<!-- SerSelectModule&#45;&gt;PinInputComponent  -->
<g id="edge11" class="edge">
<title>SerSelectModule&#45;&gt;PinInputComponent </title>
<path fill="none" stroke="black" stroke-dasharray="5,2" d="M761.23,-183C811.79,-183 878.18,-183 878.18,-183 878.18,-183 878.18,-205.88 878.18,-205.88"/>
<polygon fill="black" stroke="black" points="874.68,-205.88 878.18,-215.88 881.68,-205.88 874.68,-205.88"/>
</g>
<!-- SerControlDirective  -->
<g id="node13" class="node">
<title>SerControlDirective </title>
<polygon fill="#fb8072" stroke="black" points="771.52,-252 638.48,-252 638.48,-216 771.52,-216 771.52,-252"/>
<text text-anchor="middle" x="705" y="-229.8" font-family="Times,serif" font-size="14.00">SerControlDirective </text>
</g>
<!-- SerSelectModule&#45;&gt;SerControlDirective  -->
<g id="edge12" class="edge">
<title>SerSelectModule&#45;&gt;SerControlDirective </title>
<path fill="none" stroke="black" stroke-dasharray="5,2" d="M705,-187.11C705,-187.11 705,-205.99 705,-205.99"/>
<polygon fill="black" stroke="black" points="701.5,-205.99 705,-215.99 708.5,-205.99 701.5,-205.99"/>
</g>
<!-- SerErrorDirective  -->
<g id="node14" class="node">
<title>SerErrorDirective </title>
<polygon fill="#fb8072" stroke="black" points="620.78,-252 501.22,-252 501.22,-216 620.78,-216 620.78,-252"/>
<text text-anchor="middle" x="561" y="-229.8" font-family="Times,serif" font-size="14.00">SerErrorDirective </text>
</g>
<!-- SerSelectModule&#45;&gt;SerErrorDirective  -->
<g id="edge13" class="edge">
<title>SerSelectModule&#45;&gt;SerErrorDirective </title>
<path fill="none" stroke="black" stroke-dasharray="5,2" d="M648.79,-183C615.97,-183 580.96,-183 580.96,-183 580.96,-183 580.96,-205.88 580.96,-205.88"/>
<polygon fill="black" stroke="black" points="577.46,-205.88 580.96,-215.88 584.46,-205.88 577.46,-205.88"/>
</g>
<!-- SerErrorsDirective  -->
<g id="node15" class="node">
<title>SerErrorsDirective </title>
<polygon fill="#fb8072" stroke="black" points="483.72,-252 358.28,-252 358.28,-216 483.72,-216 483.72,-252"/>
<text text-anchor="middle" x="421" y="-229.8" font-family="Times,serif" font-size="14.00">SerErrorsDirective </text>
</g>
<!-- SerSelectModule&#45;&gt;SerErrorsDirective  -->
<g id="edge14" class="edge">
<title>SerSelectModule&#45;&gt;SerErrorsDirective </title>
<path fill="none" stroke="black" stroke-dasharray="5,2" d="M648.52,-178C581.55,-178 478.87,-178 478.87,-178 478.87,-178 478.87,-205.97 478.87,-205.97"/>
<polygon fill="black" stroke="black" points="475.37,-205.97 478.87,-215.97 482.37,-205.97 475.37,-205.97"/>
</g>
<!-- SerFormElementComponent  -->
<g id="node16" class="node">
<title>SerFormElementComponent </title>
<polygon fill="#fb8072" stroke="black" points="340.48,-252 159.52,-252 159.52,-216 340.48,-216 340.48,-252"/>
<text text-anchor="middle" x="250" y="-229.8" font-family="Times,serif" font-size="14.00">SerFormElementComponent </text>
</g>
<!-- SerSelectModule&#45;&gt;SerFormElementComponent  -->
<g id="edge15" class="edge">
<title>SerSelectModule&#45;&gt;SerFormElementComponent </title>
<path fill="none" stroke="black" stroke-dasharray="5,2" d="M648.48,-174C528.39,-174 258.71,-174 258.71,-174 258.71,-174 258.71,-206 258.71,-206"/>
<polygon fill="black" stroke="black" points="255.21,-206 258.71,-216 262.21,-206 255.21,-206"/>
</g>
<!-- VirtualScrollerModule -->
<g id="node9" class="node">
<title>VirtualScrollerModule</title>
<polygon fill="#8dd3c7" stroke="black" points="1267.52,-122 1264.52,-126 1243.52,-126 1240.52,-122 1124.48,-122 1124.48,-86 1267.52,-86 1267.52,-122"/>
<text text-anchor="middle" x="1196" y="-99.8" font-family="Times,serif" font-size="14.00">VirtualScrollerModule</text>
</g>
<!-- VirtualScrollerModule&#45;&gt;SerSelectModule -->
<g id="edge8" class="edge">
<title>VirtualScrollerModule&#45;&gt;SerSelectModule</title>
<path fill="none" stroke="black" d="M1192.35,-122.3C1192.35,-140.27 1192.35,-165 1192.35,-165 1192.35,-165 771.38,-165 771.38,-165"/>
<polygon fill="black" stroke="black" points="771.38,-161.5 761.38,-165 771.38,-168.5 771.38,-161.5"/>
</g>
<!-- DataService -->
<g id="node17" class="node">
<title>DataService</title>
<ellipse fill="#fdb462" stroke="black" cx="1350" cy="-104" rx="58.44" ry="18"/>
<text text-anchor="middle" x="1350" y="-99.8" font-family="Times,serif" font-size="14.00">DataService</text>
</g>
<!-- DataService&#45;&gt;SerSelectModule -->
<g id="edge16" class="edge">
<title>DataService&#45;&gt;SerSelectModule</title>
<path fill="none" stroke="black" d="M1350,-122.11C1350,-141.34 1350,-169 1350,-169 1350,-169 771.39,-169 771.39,-169"/>
<polygon fill="black" stroke="black" points="771.39,-165.5 761.39,-169 771.39,-172.5 771.39,-165.5"/>
</g>
</g>
</svg>
